<?xml version="1.0" standalone="no"?>
<!DOCTYPE svg PUBLIC "-//W3C//DTD SVG 20010904//EN"
 "http://www.w3.org/TR/2001/REC-SVG-20010904/DTD/svg10.dtd">
<svg version="1.0" xmlns="http://www.w3.org/2000/svg"
 width="512.000000pt" height="512.000000pt" viewBox="0 0 512.000000 512.000000"
 preserveAspectRatio="xMidYMid meet">
<metadata>
Created by potrace 1.14, written by Peter Selinger 2001-2017
</metadata>
<g transform="translate(0.000000,512.000000) scale(0.100000,-0.100000)"
fill="#000000" stroke="none">
<path d="M1380 4590 c-392 -37 -587 -81 -830 -190 -298 -134 -439 -320 -522
-690 -19 -86 -23 -132 -22 -250 1 -127 5 -156 28 -234 15 -50 47 -128 71 -175
90 -174 201 -287 650 -661 121 -100 228 -191 239 -201 18 -17 17 -20 -48 -106
-130 -171 -179 -308 -179 -493 0 -181 40 -311 194 -628 83 -171 93 -187 166
-261 60 -60 95 -87 153 -114 117 -55 191 -67 407 -67 878 1 1617 221 2225 663
425 309 655 508 811 702 171 212 322 473 369 640 19 65 23 103 22 205 -2 325
-143 667 -369 895 -168 170 -360 263 -610 296 -62 8 -171 10 -350 5 l-260 -7
-40 56 c-60 83 -265 232 -485 353 -219 120 -497 210 -760 247 -134 19 -707 29
-860 15z m870 -168 c351 -65 642 -190 942 -404 102 -72 168 -132 168 -153 0
-12 -87 -55 -110 -55 -6 0 -37 22 -68 49 -187 161 -547 316 -817 352 -148 19
-132 -2 43 -55 218 -68 407 -138 537 -201 118 -57 263 -152 249 -164 -5 -4
-138 -69 -296 -145 l-287 -138 -108 40 c-186 69 -404 126 -703 182 -91 17
-171 33 -177 35 -8 3 16 63 72 177 47 94 85 176 85 182 0 16 -59 -45 -105
-109 -50 -70 -87 -142 -105 -202 -12 -39 -16 -43 -45 -43 -69 0 -66 15 34 209
65 127 87 180 78 184 -8 3 -56 -64 -136 -194 -110 -178 -125 -198 -142 -189
-10 6 -19 13 -19 15 0 3 14 39 31 82 63 158 78 203 69 208 -8 5 -65 -92 -122
-207 -15 -31 -38 -64 -50 -72 -22 -16 -59 -21 -70 -10 -3 3 25 86 63 185 38
100 69 183 69 185 0 2 -4 4 -10 4 -5 0 -50 -81 -100 -180 -49 -98 -98 -184
-108 -189 -22 -12 -62 -3 -62 13 0 7 20 72 45 146 50 150 50 150 32 150 -8 0
-41 -65 -77 -151 -62 -146 -78 -169 -117 -169 -45 1 -44 11 7 164 42 127 46
146 28 130 -11 -11 -45 -69 -74 -131 -38 -79 -64 -120 -88 -138 -36 -27 -61
-33 -53 -11 31 79 127 408 122 416 -10 16 -31 12 -100 -19 -180 -82 -276 -197
-320 -385 -53 -224 34 -426 294 -686 237 -237 735 -578 1038 -710 335 -147
651 -237 973 -276 175 -21 565 -15 680 11 261 58 567 206 675 327 64 71 108
166 113 244 6 89 -18 152 -83 222 l-54 57 6 -80 c4 -56 12 -87 24 -104 11 -13
19 -39 19 -57 0 -29 -15 -50 -96 -139 -126 -138 -132 -138 -80 -2 l26 69 -35
-31 c-20 -17 -39 -31 -43 -31 -4 0 -26 36 -49 80 -30 56 -43 92 -43 120 l0 41
-34 -6 c-39 -8 -56 0 -144 64 l-63 46 70 32 c116 54 335 103 461 103 44 0 51
-4 79 -37 46 -56 72 -134 82 -253 6 -58 13 -140 17 -183 l8 -79 -86 -81 c-227
-215 -511 -407 -826 -558 -133 -64 -164 -76 -164 -64 0 3 29 44 65 92 36 49
65 91 65 96 0 22 -37 -10 -202 -178 -100 -102 -192 -188 -204 -191 -12 -3 -34
0 -48 8 l-26 14 120 136 c66 75 115 140 110 143 -6 4 -77 -59 -158 -139 -83
-81 -160 -148 -174 -151 -23 -6 -98 18 -98 32 0 2 14 25 31 49 17 25 29 47 27
49 -2 2 -37 -18 -77 -45 -60 -41 -80 -50 -116 -50 -24 0 -46 4 -49 9 -3 4 20
37 51 72 31 35 66 74 77 87 20 23 20 23 1 16 -20 -7 -90 -58 -157 -116 -36
-29 -40 -31 -75 -20 -71 22 -73 26 -23 77 57 58 38 58 -32 0 l-55 -45 -154 44
c-399 115 -662 228 -899 387 -131 88 -573 454 -729 604 -290 279 -362 499
-282 860 45 199 90 364 112 406 26 52 88 102 198 158 305 155 548 191 1261
187 313 -3 369 -5 470 -24z m-1430 -281 c0 -10 -79 -237 -119 -342 -18 -48
-27 -59 -61 -74 -22 -10 -43 -15 -46 -12 -4 3 15 65 40 137 25 73 41 130 34
128 -6 -2 -36 -58 -65 -124 -30 -65 -59 -123 -65 -129 -7 -7 -9 20 -6 85 3 71
10 105 26 136 27 53 112 130 188 171 63 35 74 38 74 24z m3375 -355 c122 -31
278 -107 362 -175 112 -92 245 -295 307 -469 43 -121 66 -257 66 -389 0 -148
-20 -234 -85 -364 -187 -372 -494 -708 -934 -1022 -359 -257 -822 -476 -1171
-555 -326 -74 -532 -113 -560 -107 -34 7 -63 40 -103 115 -16 29 -31 50 -34
47 -3 -3 9 -43 26 -88 17 -45 30 -84 27 -86 -7 -7 -377 -25 -401 -19 -13 3
-37 28 -55 56 -18 27 -33 50 -35 50 -1 0 1 -19 5 -42 5 -24 6 -45 4 -48 -11
-10 -74 -3 -90 11 -10 7 -44 54 -76 104 -32 49 -58 86 -58 83 0 -4 13 -42 30
-85 37 -96 37 -103 3 -103 -79 1 -145 63 -188 177 l-19 48 -14 -35 -14 -35
-34 39 c-39 46 -100 147 -165 273 -123 241 -146 440 -75 644 28 80 96 193 158
262 l43 47 132 -82 133 -83 0 -45 c0 -25 5 -90 11 -145 10 -86 9 -109 -5 -165
-9 -36 -23 -71 -31 -79 -15 -16 -11 -29 -71 212 -34 136 -54 182 -54 122 0
-47 31 -241 57 -348 24 -105 25 -168 3 -182 -16 -10 -57 87 -94 223 -20 72
-42 146 -50 164 -13 31 -14 31 -15 8 0 -14 11 -90 23 -170 15 -90 20 -149 14
-155 -12 -14 -19 0 -69 134 -23 64 -45 120 -50 125 -12 14 -32 -105 -26 -160
15 -148 119 -252 313 -314 291 -93 772 -41 1214 132 115 45 774 375 963 481
330 187 702 456 845 612 88 96 121 173 202 470 l71 260 -3 115 c-3 102 -6 121
-31 172 -44 91 -119 139 -274 179 -156 39 -363 35 -543 -11 -84 -22 -113 -44
-108 -84 l3 -28 47 36 c26 20 52 36 57 36 6 0 11 -16 11 -36 l0 -36 30 31 c17
17 48 35 68 41 43 12 119 13 125 3 4 -6 -60 -223 -88 -301 -4 -10 -11 -9 -35
3 -29 15 -31 14 -85 -21 -30 -21 -58 -35 -60 -32 -3 3 2 42 10 87 9 46 15 85
13 87 -2 2 -21 -37 -42 -87 -46 -107 -69 -128 -123 -111 -34 10 -38 9 -76 -23
-32 -27 -76 -46 -214 -90 -210 -68 -379 -138 -492 -205 -46 -27 -88 -50 -93
-50 -6 0 -7 17 -4 38 11 78 28 264 23 268 -17 18 -67 -190 -67 -280 l0 -53
-55 -37 c-30 -20 -59 -36 -64 -36 -6 0 -8 20 -5 48 21 197 31 358 23 366 -5 6
-9 6 -9 1 0 -21 -72 -413 -81 -442 -5 -17 -21 -38 -34 -47 -44 -29 -48 -23
-41 67 17 207 18 295 6 346 -8 33 -17 51 -27 51 -8 0 -56 -14 -107 -31 -168
-56 -359 -173 -481 -294 l-70 -70 48 -3 48 -3 -7 -47 c-11 -79 -8 -79 -144
-12 l-123 61 33 34 c69 71 493 365 720 500 100 59 440 235 454 235 3 0 114 50
248 111 434 198 600 241 903 235 154 -3 194 -7 280 -30z m-2855 -141 c198 -20
388 -49 565 -85 258 -54 509 -131 488 -150 -4 -5 -116 -70 -248 -146 -353
-203 -479 -286 -628 -417 l-67 -59 -48 28 c-86 49 -295 195 -391 273 -143 114
-299 276 -370 380 -33 51 -61 98 -61 105 0 19 133 69 240 90 45 9 361 -3 520
-19z m2795 -107 c-22 -106 -47 -195 -65 -222 -29 -48 -56 -69 -78 -62 -19 6
-19 8 -1 84 45 193 48 199 87 216 57 23 65 21 57 -16z m138 -9 c45 -11 84 -22
88 -24 9 -6 -37 -160 -58 -196 -12 -20 -24 -29 -38 -27 -22 3 -22 8 -11 103 7
53 6 58 -6 40 -8 -11 -22 -41 -32 -68 -10 -26 -27 -54 -39 -62 -25 -17 -67
-20 -67 -4 0 9 25 99 66 242 6 21 -1 21 97 -4z m159 -76 c13 -11 18 -30 18
-65 0 -46 1 -48 24 -42 22 5 23 3 29 -63 3 -37 2 -72 -3 -77 -15 -16 -60 40
-60 76 -1 35 -4 33 -37 -19 -10 -16 -13 -14 -28 22 -18 41 -14 84 14 158 12
31 18 33 43 10z m-38 -382 l84 -39 -19 -79 c-11 -43 -21 -82 -23 -87 -2 -9
-136 224 -136 238 0 10 5 8 94 -33z m-1990 0 c4 -5 -3 -69 -13 -143 -11 -73
-25 -173 -31 -223 -6 -49 -15 -106 -20 -126 -14 -52 -66 -124 -102 -142 -28
-13 -37 -13 -82 0 -28 8 -54 18 -57 21 -4 4 0 87 8 186 13 163 12 199 -2 184
-3 -3 -16 -70 -30 -149 -35 -199 -32 -189 -59 -189 -12 0 -31 9 -41 20 -18 20
-18 26 -1 178 10 95 21 159 29 164 7 4 91 56 187 117 169 105 202 121 214 102z
m1039 -167 c53 -27 167 -126 208 -179 66 -87 91 -156 97 -260 l5 -92 -83 -22
c-191 -52 -268 -62 -500 -68 -179 -4 -254 -2 -360 12 -123 15 -316 51 -413 76
l-39 10 99 76 c261 201 506 335 773 424 128 43 166 47 213 23z m-1493 -116
c-1 -18 -41 -232 -44 -235 -9 -10 -56 97 -56 128 0 23 10 42 39 70 31 32 61
50 61 37z m-428 -891 c50 -21 76 -37 73 -45 -5 -13 -138 -171 -142 -168 -1 1
-9 49 -18 106 -9 58 -18 116 -21 129 -6 27 -12 28 108 -22z m449 -146 c283
-80 398 -110 529 -135 69 -13 143 -32 165 -41 l40 -17 -40 -21 c-77 -39 -220
-99 -334 -138 -246 -85 -469 -128 -710 -136 l-163 -6 7 53 c16 118 73 245 167
372 62 84 101 118 138 118 15 0 106 -22 201 -49z"/>
<path d="M1869 955 c-7 -7 44 -155 54 -155 4 0 7 6 6 13 0 21 -55 148 -60 142z"/>
<path d="M1720 905 c0 -13 32 -66 36 -62 6 6 -23 67 -31 67 -3 0 -5 -2 -5 -5z"/>
<path d="M1540 893 c0 -4 9 -19 20 -33 l19 -25 -7 29 c-7 27 -32 50 -32 29z"/>
<path d="M2260 2768 c-16 -53 -23 -105 -26 -188 -3 -74 -1 -108 5 -94 16 37
60 354 49 354 -3 0 -15 -33 -28 -72z"/>
</g>
</svg>
